<?xml version="1.0" encoding="UTF-8"?>
<!DOCTYPE svg PUBLIC "-//W3C//DTD SVG 1.1//EN" "http://www.w3.org/Graphics/SVG/1.1/DTD/svg11.dtd">
<!-- Creator: CorelDRAW X6 -->
<svg xmlns="http://www.w3.org/2000/svg" width="13mm" version="1.1" style="shape-rendering:geometricPrecision; text-rendering:geometricPrecision; image-rendering:optimizeQuality; fill-rule:evenodd; clip-rule:evenodd"
viewBox="0 0 1021 1441"
 xmlns:xlink="http://www.w3.org/1999/xlink">
 <defs>
  <style type="text/css">
   <![CDATA[
    .str0 {stroke:#232222;stroke-width:25.7186}
    .str1 {stroke:#332C2B;stroke-width:25.7186}
    .fil1 {fill:none;fill-rule:nonzero}
    .fil0 {fill:#47A444;fill-rule:nonzero}
    .fil3 {fill:#C8C8C8;fill-rule:nonzero}
    .fil2 {fill:#CA2C2F;fill-rule:nonzero}
    .fil4 {fill:#FEFEFE;fill-rule:nonzero}
   ]]>
  </style>
 </defs>
 <g id="图层_x0020_1">
  <metadata id="CorelCorpID_0Corel-Layer"/>
  <g id="_975438544">
   <path class="fil0" d="M490 1218c0,0 -122,-116 -213,-96 -91,19 -166,94 -190,122 26,43 111,159 190,148 78,-11 203,-84 226,-114 24,-30 -13,-60 -13,-60z"/>
   <path class="fil1 str0" d="M490 1218c0,0 -122,-116 -213,-96 -91,19 -166,94 -190,122 26,43 111,159 190,148 78,-11 203,-84 226,-114 24,-30 -13,-60 -13,-60"/>
  </g>
  <g id="_975437072">
   <path class="fil0" d="M610 1134c0,0 107,-137 210,-137 103,0 176,118 186,150 -32,45 -137,150 -198,146 -61,-4 -177,-79 -198,-92 -21,-13 0,-56 0,-56l0 -11z"/>
   <path class="fil1 str0" d="M610 1134c0,0 107,-137 210,-137 103,0 176,118 186,150 -32,45 -137,150 -198,146 -61,-4 -177,-79 -198,-92 -21,-13 0,-56 0,-56"/>
   <line class="fil1 str0" x1="610" y1="1145" x2="610" y2= "1134" />
  </g>
  <g id="_975428112">
   <polygon class="fil0" points="460,905 498,1428 640,1428 563,879 "/>
   <polygon class="fil1 str0" points="460,905 498,1428 640,1428 563,879 "/>
  </g>
  <g id="_975436848">
   <path class="fil2" d="M126 232c0,0 -150,189 -62,446 88,257 349,272 396,274 47,2 241,-69 344,-199 102,-131 107,-467 -99,-589 -56,-51 -51,0 -51,0 0,0 -101,201 -118,304 -17,103 -81,191 -81,191 0,0 -65,-45 -108,-189 -43,-144 -205,-261 -221,-238z"/>
   <path class="fil1 str1" d="M126 232c0,0 -150,189 -62,446 88,257 349,272 396,274 47,2 241,-69 344,-199 102,-131 107,-467 -99,-589 -56,-51 -51,0 -51,0 0,0 -101,201 -118,304 -17,103 -81,191 -81,191 0,0 -65,-45 -108,-189 -43,-144 -205,-261 -221,-238"/>
  </g>
  <path class="fil3" d="M140 163c0,0 69,-80 121,-76 52,3 19,12 12,27 -7,15 -54,59 -58,114 -43,-34 -80,-57 -80,-57l5 -7z"/>
  <path class="fil3" d="M365 180c-2,0 -107,37 -127,69 26,26 52,57 52,57 0,0 62,-88 79,-93 12,-11 27,-34 -4,-34z"/>
  <path class="fil3" d="M427 314c0,0 -114,-6 -123,13 15,24 45,76 45,76 0,0 40,-66 69,-70 29,-3 9,-19 9,-19z"/>
  <path class="fil3" d="M460 403c0,0 -96,8 -97,27 12,26 31,65 31,65 0,0 60,-58 73,-62 13,-4 0,-31 -6,-30z"/>
  <path class="fil3" d="M531 352c0,0 -84,19 -92,21 -8,2 -23,9 3,30 27,21 75,18 75,18l15 -70z"/>
  <path class="fil3" d="M554 253c0,0 -90,0 -100,4 -10,4 -44,34 0,36 44,2 79,48 80,42 3,-18 20,-82 20,-82z"/>
  <path class="fil3" d="M605 141c0,0 -92,-19 -136,12 -19,13 -28,20 24,35 49,22 70,40 70,40 0,0 39,-82 42,-87z"/>
  <path class="fil3" d="M682 62c0,0 -98,-61 -137,-62 -39,-2 -55,27 -23,41 33,14 86,74 93,82 12,-15 52,-55 66,-61z"/>
  <path class="fil4 str1" d="M182 306c0,0 -89,-74 -92,-64 -3,9 -9,67 -11,71 -2,4 -50,-46 -59,-54 -9,-7 -21,-85 34,-106 56,-21 185,83 246,169 61,87 136,273 146,295 44,-51 80,-242 91,-303 11,-61 74,-267 200,-265 126,2 48,144 31,167 -25,-24 -53,-45 -53,-45l-4 -35c0,0 -25,36 -27,44 -2,7 -89,152 -126,333 -39,123 -73,191 -105,200 -32,10 -53,-70 -67,-93 -14,-24 -118,-259 -205,-314z"/>
  <g id="_815507328">
   <path class="fil4" d="M168 447c0,46 -37,83 -83,83 -14,0 -26,-3 -38,-9 -1,-60 10,-113 25,-157 4,-1 9,-1 13,-1 46,0 83,37 83,83z"/>
   <path class="fil4" d="M277 687c0,44 -36,80 -80,80 -44,0 -80,-36 -80,-80 0,-44 36,-80 80,-80 44,0 80,36 80,80z"/>
   <path class="fil4" d="M527 760c0,50 -41,91 -92,91 -51,0 -92,-41 -92,-91 0,-50 41,-91 92,-91 51,0 92,41 92,91z"/>
   <path class="fil4" d="M627 882c-9,-13 -14,-28 -14,-44 0,-43 35,-78 78,-78 26,0 49,13 63,32 -38,37 -83,67 -127,90z"/>
   <path class="fil4" d="M802 566c0,52 -42,95 -95,95 -52,0 -95,-42 -95,-95 0,-52 42,-95 95,-95 52,0 95,42 95,95z"/>
   <path class="fil4" d="M853 421c-8,3 -18,5 -27,5 -45,0 -82,-37 -82,-82 0,-34 21,-63 50,-76 30,45 49,98 59,153z"/>
  </g>
 </g>
</svg>
