
<svg xmlns="http://www.w3.org/2000/svg" width="28mm" version="1.1" viewBox="0 0 1047 1398">
 <defs>
  <style type="text/css">
   <![CDATA[
    .fil0 {fill:#332C2B}
    .fil1 {fill:#643737;fill-rule:nonzero}
    .fil2 {fill:#FBDAAA;fill-rule:nonzero}
    .fil3 {fill:#733838;fill-rule:nonzero}
    .fil4 {fill:#E62129;fill-rule:nonzero}
    .fil5 {fill:#FEFEFE;fill-rule:nonzero}
    .fil6 {fill:#5E3938;fill-rule:nonzero}
    .fil7 {fill:#2C2D2E;fill-rule:nonzero}
    .fil8 {fill:#FFF000;fill-rule:nonzero}
    .fil9 {fill:#408ECC;fill-rule:nonzero}
    .fil10 {fill:#E7312E}
   ]]>
  </style>
 </defs>
   <path class="fil0" d="M568 853c106,0 92,136 5,136 -88,0 -89,-136 -5,-136zm7 16l0 0c-74,0 -69,105 -4,105 78,-1 63,-104 4,-105z"/>
   <path class="fil0" d="M603 14c34,16 82,54 103,129 15,-15 18,-23 50,-30 35,-50 100,-29 123,-7 105,4 135,76 131,136 -4,61 -17,90 -57,129 3,69 -55,80 -62,96 -8,15 22,68 -56,130 -10,52 -47,108 -102,156 -11,11 -24,28 -4,35 31,-7 34,16 41,20 61,-109 193,-58 212,-11 0,0 0,19 18,19 36,0 93,89 -22,229 -13,67 -50,127 -112,99 -17,-10 -28,-4 -53,-4 -58,0 -64,-55 -93,-29 -25,18 -92,90 -292,65 -15,70 -13,92 -46,99 -5,45 -27,123 -129,120 -76,-2 -75,-45 -121,-50 -41,-19 -41,-139 -2,-224 -171,-35 -157,-255 -60,-277 2,-71 66,-69 80,-69 12,-17 56,-50 88,-57 0,-1 -120,-46 -107,-166 -71,-96 2,-202 58,-204 15,-52 37,-106 68,-158 70,-118 153,-157 182,-172 64,-28 118,-29 163,-8zm-288 680l0 0c-8,8 44,9 42,2 -5,-14 -24,-18 -42,-2zm305 -627l0 0c-35,-25 -71,-36 -126,-23 -75,23 -232,133 -281,367 -7,24 -1,-23 -15,-26 -52,-9 -80,90 -48,137 11,17 21,-16 53,-32 29,-15 69,-11 76,-24 88,-185 218,-212 210,-225 -92,-145 133,-234 163,-79 3,14 4,23 12,21 22,-5 -2,-86 -44,-116zm-78 30l0 0c-51,22 -84,79 -34,140 64,-8 137,-45 138,-50 -5,-76 -59,-105 -104,-90zm256 39l0 0c48,-10 82,54 75,98 32,45 72,7 64,24 -18,39 -78,-3 -89,12 -35,27 -74,45 -118,52 8,9 12,21 12,35 39,-4 86,-5 118,49 37,18 56,-20 46,-42 -25,8 -55,2 -62,-14 160,34 172,-225 12,-210 -11,-24 -53,-24 -58,-4zm-65 38l0 0c33,-8 99,12 110,22 -9,-43 -75,-65 -110,-22zm-121 529l0 0c27,-5 24,-29 18,-32 -6,-3 -32,-4 -16,28 -21,-21 -56,-39 -60,-29 -22,63 35,79 58,34zm-73 -357l0 0c84,-52 145,-102 262,-111 11,-1 41,2 43,-10 2,-10 -47,-38 -144,-32 -53,3 -64,23 -134,43 -81,22 -171,76 -205,143 -10,20 107,10 178,-34zm-181 56l0 0c26,90 72,64 80,100 6,29 -14,25 -19,34 5,35 -33,72 -77,16 -18,-22 -35,-48 -62,-58 -43,-16 -88,13 -98,31 -55,103 83,194 164,138 16,-11 94,104 190,102 45,-1 89,-10 118,-38 16,-16 53,-58 -5,-41 -19,6 -8,30 -35,38 -13,5 -23,28 -49,19 -50,-19 -8,-105 -44,-126 -35,-21 -57,-87 -34,-115 20,-19 84,43 126,39 42,-4 66,26 96,32 183,26 162,-147 94,-179 -48,-20 -103,-10 -145,29 0,-5 14,-16 13,-22 -10,-19 -26,-62 -4,-79 20,-12 24,53 48,48 8,-1 -17,-113 -68,-77 -29,21 -183,134 -289,108zm-57 54l0 0c-11,24 29,51 38,67 22,41 50,43 61,32 9,-11 1,-18 7,-27 11,-2 18,-6 19,-15 2,-22 -44,-23 -53,-38 -10,-25 -29,-113 -72,-19zm204 73l0 0c-11,80 36,57 40,79 13,68 69,54 78,44 9,-9 29,13 43,13 22,0 28,-19 41,-19 58,0 70,-29 57,-49 -21,-6 -30,8 -72,-4 -16,-5 -33,-23 -50,-28 -22,-8 -49,-3 -71,-8 -22,-6 -66,-43 -66,-27zm156 220l0 0c26,14 77,-52 88,-76 8,-19 -31,-19 -34,-8 -19,54 -51,63 -55,84zm-382 95l0 0c5,7 104,-53 127,-72 40,-33 -116,-72 -206,20 43,17 67,36 79,53zm175 -75l0 0c-12,-12 -34,32 -104,65 -21,22 -25,50 -44,86 146,77 191,-79 148,-151zm216 52l0 0c-4,23 -61,22 -84,17 -26,-10 -32,-44 -55,-55 -16,-7 -36,-9 -59,-13 33,74 5,235 -159,170 9,23 8,50 3,83 60,68 75,35 90,58 5,14 -17,50 42,58 115,16 216,-24 266,-90 17,-23 35,-54 31,-88 -1,-12 -14,-27 -22,-41 -14,-25 -35,-63 -15,-94 -19,-25 -35,-42 -64,-60 -1,18 29,36 25,53zm-104 -31l0 0c-8,12 6,24 21,35 8,6 57,7 64,-7 3,-13 -10,-26 -16,-31 -20,-16 -58,-7 -69,2zm222 91l0 0c-2,7 13,31 5,61 -8,31 -44,106 -29,124 33,42 94,34 116,0 48,-86 96,-191 68,-235 -20,-31 -133,-78 -160,50zm-680 -37l0 0c-2,9 22,-3 31,5 12,16 -110,-4 -102,137 5,78 140,147 206,73 -20,-34 -31,17 -37,1 -10,-26 50,-85 42,-50 -3,9 -8,13 -11,20 90,18 60,-113 18,-136 -18,-10 5,-15 24,5 7,-66 -159,-117 -172,-57zm660 81l0 0c5,-45 -53,-113 -50,-68 11,74 47,82 50,68zm209 -65l0 0c-3,45 -55,177 -102,233 39,31 57,-56 65,-72 75,-67 69,-181 37,-162zm-609 231l0 0c-34,-5 -26,79 -40,88 -5,-10 5,-91 10,-105 -13,-19 -30,-25 -48,-21 -11,2 -42,50 -83,64 -6,13 -55,171 -10,220 56,60 146,14 143,-94 46,1 47,-149 28,-152zm-181 31l0 0c-7,6 -13,7 -19,6 -24,17 -54,176 -10,190 9,2 -17,-74 28,-196z"/>
   <path class="fil0" d="M275 565c-5,-11 -26,-8 -25,-25 1,-6 59,4 61,60 2,34 -32,41 -61,41 -5,0 4,-3 8,-4 17,-3 46,-14 39,-39 -4,-14 -18,-17 -27,-19 -9,-3 7,-5 5,-13z"/>
   <path class="fil0" d="M591 420c8,32 3,60 -10,63 -13,3 -30,-20 -38,-52 -8,-32 -3,-60 10,-63 13,-3 30,20 38,52z"/>
   <path class="fil1" d="M427 514c2,-22 -44,-23 -53,-38 -10,-25 -29,-113 -72,-19 -11,24 29,51 38,67 22,41 51,43 61,32 9,-11 1,-18 7,-27 11,-2 18,-6 19,-15z"/>
   <path class="fil2" d="M347 665c16,-11 94,104 190,102 45,-1 89,-10 118,-38 16,-16 53,-58 -5,-41 -19,6 -8,30 -35,38 -13,5 -23,28 -49,19 -50,-19 -8,-105 -44,-126 -35,-21 -57,-87 -34,-115 20,-19 84,43 126,39 42,-4 66,26 96,32 183,26 162,-147 94,-179 -48,-20 -103,-10 -145,29 0,-5 14,-16 13,-22 -10,-19 -26,-62 -4,-79 20,-12 24,53 48,48 8,-1 -17,-113 -68,-77 -29,21 -183,134 -289,108 26,90 72,64 80,100 6,29 -14,25 -19,34 5,35 -33,72 -77,16 -18,-22 -35,-48 -62,-58 -43,-16 -88,13 -98,31 -55,103 83,194 164,138zm206 -296l0 0c13,-3 30,20 38,52 8,32 3,60 -10,63 -13,3 -30,-20 -38,-52 -8,-32 -3,-60 10,-63zm-295 268l0 0c17,-3 46,-14 39,-39 -4,-14 -18,-17 -27,-19 -9,-3 7,-5 5,-13 -5,-11 -26,-8 -25,-25 1,-6 59,4 61,60 2,34 -32,41 -61,41 -5,0 4,-3 8,-4z"/>
   <path class="fil3" d="M766 1067c33,42 94,34 116,0 48,-86 96,-191 68,-235 -20,-31 -133,-78 -160,50 -2,7 13,31 5,61 -8,31 -44,106 -29,124z"/>
   <path class="fil4" d="M621 67c-35,-25 -71,-36 -126,-23 -75,23 -232,133 -281,367 -7,24 -1,-23 -15,-26 -52,-9 -80,90 -48,137 11,17 21,-16 53,-32 29,-15 69,-11 76,-24 88,-185 218,-212 210,-225 -92,-145 133,-234 163,-79 3,14 4,23 12,21 22,-5 -2,-86 -44,-116z"/>
   <path class="fil5" d="M857 141c-11,-24 -53,-24 -58,-4 48,-10 82,54 75,98 32,45 72,7 64,24 -18,39 -78,-3 -89,12 -35,27 -74,45 -118,52 8,9 12,21 12,35 39,-4 86,-5 118,49 37,18 56,-20 46,-42 -25,8 -55,2 -62,-14 160,34 172,-225 12,-210z"/>
   <path class="fil5" d="M169 1129c-24,17 -54,176 -10,190 9,2 -17,-74 28,-196 -7,6 -13,7 -19,6z"/>
   <path class="fil5" d="M734 175c33,-8 99,12 110,22 -9,-43 -75,-65 -110,-22z"/>
   <path class="fil5" d="M647 187c-5,-76 -59,-105 -104,-90 -51,21 -84,79 -34,140 64,-8 137,-45 138,-50zm-37 12l0 0c-4,0 -14,-28 -22,-35 -5,7 -12,32 -15,31 -4,-3 -22,-18 -31,-19 1,14 3,26 5,38 -5,4 -28,5 -31,-1 0,-35 4,-85 8,-84 3,0 28,18 41,24 0,-3 9,-43 15,-42 5,2 47,64 49,71 -2,3 -4,13 -19,18z"/>
   <path class="fil5" d="M941 1023c75,-67 69,-181 37,-162 -3,45 -55,177 -102,233 39,31 57,-56 65,-72z"/>
   <path class="fil4" d="M701 195c-53,3 -64,23 -134,43 -81,22 -171,76 -205,143 -10,20 107,10 178,-34 84,-52 145,-102 262,-111 11,-1 41,2 43,-10 2,-10 -47,-38 -144,-32z"/>
   <path class="fil5" d="M39 988c5,78 140,147 206,73 -20,-34 -31,17 -37,1 -10,-26 50,-85 42,-50 -3,9 -8,13 -11,20 90,18 60,-113 18,-136 -18,-10 5,-15 24,5 7,-66 -159,-117 -172,-57 -2,9 22,-3 31,5 12,16 -110,-4 -102,137z"/>
   <path class="fil6" d="M316 695c-8,8 44,9 42,2 -5,-14 -24,-18 -42,-2z"/>
   <path class="fil4" d="M555 670c-22,63 35,79 58,34 27,-5 24,-29 18,-32 -6,-3 -32,-4 -16,28 -21,-21 -56,-39 -60,-29z"/>
   <path class="fil4" d="M280 845c5,7 104,-53 127,-72 40,-33 -116,-72 -206,20 43,17 67,36 79,53z"/>
   <path class="fil7" d="M731 1108c3,0 6,0 10,0 -3,-1 -6,-1 -10,0z"/>
   <path class="fil8" d="M719 858c11,74 47,82 50,68 5,-45 -53,-113 -50,-68z"/>
   <path class="fil3" d="M341 1244c46,1 47,-149 28,-152 -34,-5 -26,79 -40,88 -5,-10 5,-91 10,-105 -13,-19 -30,-25 -48,-21 -11,2 -42,50 -83,64 -6,13 -55,171 -10,220 56,60 146,14 143,-94z"/>
   <path class="fil1" d="M765 598c-21,-6 -30,8 -72,-4 -16,-5 -33,-23 -50,-28 -22,-8 -49,-3 -71,-8 -22,-6 -66,-43 -66,-27 -11,80 36,57 40,79 13,68 69,54 78,44 9,-9 29,13 43,13 22,0 28,-19 41,-19 58,0 70,-29 57,-49z"/>
   <path class="fil8" d="M571 973c78,-1 63,-104 4,-105 -74,0 -69,105 -4,105z"/>
   <path class="fil9" d="M449 1141c115,16 216,-24 266,-90 17,-23 35,-54 31,-88 -1,-12 -14,-27 -22,-41 -14,-25 -35,-63 -15,-94 -19,-25 -35,-42 -64,-60 -1,18 29,36 25,53 -4,23 -61,22 -84,17 -26,-10 -32,-44 -55,-55 -16,-7 -36,-9 -59,-13 33,74 5,235 -159,170 9,23 8,50 3,83 60,68 75,35 90,58 5,14 -17,50 42,58zm119 -288l0 0c106,0 92,136 5,136 -88,0 -89,-136 -5,-136z"/>
   <path class="fil4" d="M588 826c8,6 57,7 64,-7 3,-13 -10,-26 -16,-31 -20,-16 -58,-7 -69,2 -8,12 6,24 21,35z"/>
   <path class="fil4" d="M456 770c-12,-12 -34,32 -104,65 -21,22 -25,50 -44,86 146,77 191,-79 148,-151z"/>
   <path class="fil4" d="M716 666c-19,54 -51,63 -55,84 26,14 77,-52 88,-76 8,-19 -31,-19 -34,-8z"/>
   <path class="fil10" d="M574 195c-4,-3 -22,-18 -31,-19 1,14 3,26 5,38 -5,4 -28,5 -31,-1 0,-35 4,-85 8,-84 3,0 28,18 41,24 0,-3 9,-43 15,-42 5,2 47,64 49,71 -2,3 -4,13 -19,18 -4,0 -14,-28 -22,-35 -5,7 -12,32 -15,31z"/>
</svg>