<?xml version="1.0" encoding="utf-8"?>
<!-- Generator: Adobe Illustrator 22.0.1, SVG Export Plug-In . SVG Version: 6.00 Build 0)  -->
<svg version="1.1" id="Layer_1" xmlns="http://www.w3.org/2000/svg" xmlns:xlink="http://www.w3.org/1999/xlink" x="0px" y="0px"
	 width="21" height="21" viewBox="0 0 20.5 20.5" style="enable-background:new 0 0 20.5 20.5;" xml:space="preserve">
<style type="text/css">
	.st0{fill:#2A2A2A;}
</style>
<g>
	<g>
		<path class="st0" d="M13,11.6l-1.7,1L7.8,9.2l1-1.7L6.8,5.1L5.3,6.4l0,0c-0.7,0.7,0.7,3.2,3.1,5.6c2.4,2.4,5,3.9,5.7,3.2l0,0
			l1.4-1.6L13,11.6z"/>
	</g>
	<g>
		<path class="st0" d="M10.2,20.5C4.6,20.5,0,15.9,0,10.2S4.6,0,10.2,0s10.2,4.6,10.2,10.2S15.9,20.5,10.2,20.5z M10.2,1.5
			c-4.8,0-8.8,3.9-8.8,8.8S5.4,19,10.2,19s8.8-3.9,8.8-8.8S15.1,1.5,10.2,1.5z"/>
	</g>
</g>
</svg>
